<svg width="159" height="50" viewBox="0 0 159 50" fill="none" xmlns="http://www.w3.org/2000/svg">
<path d="M0 37.591H150.5L159 29V50H0V37.591Z" fill="black"/>
<path d="M3.72688 49.5L0.5 45.8121V42.5H99.7929L106.793 49.5H3.72688Z" fill="black" stroke="white"/>
<path d="M7.044 44.2H7.54L8.564 47H8.012L7.784 46.38H6.8L6.572 47H6.02L7.044 44.2ZM7.664 45.932L7.292 44.868H7.284L6.924 45.932H7.664ZM8.84594 44.2H9.38994V46.54H10.7899V47H8.84594V44.2ZM11.0881 44.2H11.6321V46.54H13.0321V47H11.0881V44.2ZM14.3602 46.568V46.168H14.8962V46.404L15.0282 46.536H15.8562L15.9922 46.4V45.936L15.8602 45.804H14.8002L14.3682 45.372V44.632L14.8002 44.2H16.0642L16.4962 44.632V45.036H15.9602V44.796L15.8282 44.664H15.0362L14.9042 44.796V45.208L15.0362 45.34H16.0962L16.5282 45.772V46.56L16.0882 47H14.7922L14.3602 46.568ZM17.5624 45.856L16.5664 44.2H17.1624L17.8304 45.348H17.8384L18.5064 44.2H19.1024L18.1064 45.856V47H17.5624V45.856ZM19.1805 46.568V46.168H19.7165V46.404L19.8485 46.536H20.6765L20.8125 46.4V45.936L20.6805 45.804H19.6205L19.1885 45.372V44.632L19.6205 44.2H20.8845L21.3165 44.632V45.036H20.7805V44.796L20.6485 44.664H19.8565L19.7245 44.796V45.208L19.8565 45.34H20.9165L21.3485 45.772V46.56L20.9085 47H19.6125L19.1805 46.568ZM22.3218 44.66H21.4858V44.2H23.7018V44.66H22.8658V47H22.3218V44.66ZM24.0217 44.2H26.0457V44.66H24.5657V45.368H25.9297V45.82H24.5657V46.54H26.0457V47H24.0217V44.2ZM26.4475 44.2H26.9515L27.7835 46.008H27.7915L28.6275 44.2H29.1315V47H28.6075V45.296H28.5995L27.9555 46.608H27.6195L26.9795 45.296H26.9715V47H26.4475V44.2ZM29.5906 46.568V46.168H30.1266V46.404L30.2586 46.536H31.0866L31.2226 46.4V45.936L31.0906 45.804H30.0306L29.5986 45.372V44.632L30.0306 44.2H31.2946L31.7266 44.632V45.036H31.1906V44.796L31.0586 44.664H30.2666L30.1346 44.796V45.208L30.2666 45.34H31.3266L31.7586 45.772V46.56L31.3186 47H30.0226L29.5906 46.568ZM31.9375 47.04H33.8655V47.488H31.9375V47.04ZM34.9112 44.2H35.4072L36.4312 47H35.8792L35.6512 46.38H34.6672L34.4392 47H33.8872L34.9112 44.2ZM35.5312 45.932L35.1592 44.868H35.1512L34.7912 45.932H35.5312ZM36.6145 46.54V44.66L37.0745 44.2H38.4425L38.8945 44.652V45.08H38.3505V44.852L38.1625 44.664H37.3625L37.1585 44.868V46.332L37.3625 46.536H38.1625L38.3505 46.348V46.12H38.8945V46.548L38.4425 47H37.0745L36.6145 46.54ZM39.8921 44.66H39.0561V44.2H41.2721V44.66H40.4361V47H39.8921V44.66ZM41.612 44.2H42.156V47H41.612V44.2ZM42.4775 44.2H43.0375L43.7335 46.352H43.7415L44.4375 44.2H44.9975L44.0015 47H43.4735L42.4775 44.2ZM45.2991 44.2H47.3231V44.66H45.8431V45.368H47.2071V45.82H45.8431V46.54H47.3231V47H45.2991V44.2ZM47.6248 45.572V45.324L47.7888 45.16H48.0728L48.2328 45.328V45.568L48.0728 45.736H47.7888L47.6248 45.572ZM47.6248 46.836V46.588L47.7888 46.424H48.0728L48.2328 46.592V46.832L48.0728 47H47.7888L47.6248 46.836ZM50.3804 44.66H49.5444V44.2H51.7604V44.66H50.9244V47H50.3804V44.66ZM54.2803 46.072V47H53.7363V46.196L53.4963 45.928H52.6243V47H52.0803V44.2H53.8363L54.2643 44.632V45.48L53.9923 45.756L54.2803 46.072ZM52.6243 45.48H53.5883L53.7283 45.34V44.796L53.5883 44.656H52.6243V45.48ZM54.7795 46.52V44.2H55.3235V46.332L55.5275 46.536H56.3115L56.5155 46.332V44.2H57.0595V46.52L56.5795 47H55.2595L54.7795 46.52ZM57.5803 44.2H59.6043V44.66H58.1243V45.368H59.4883V45.82H58.1243V46.54H59.6043V47H57.5803V44.2Z" fill="#DBDBDB"/>
<path d="M155.793 42.5L158.5 45.2071V49.5H111.201L104.206 42.7868V42.5H155.793Z" fill="white" stroke="white"/>
<line x1="156" y1="44.5" x2="143" y2="44.5" stroke="black"/>
<path d="M3.896 25.66H3.06V25.2H5.276V25.66H4.44V28H3.896V25.66ZM5.59594 25.2H7.57994V25.66H6.13994V26.436H7.38794V26.896H6.13994V28H5.59594V25.2ZM7.80063 26.572V26.324L7.96463 26.16H8.24863L8.40863 26.328V26.568L8.24863 26.736H7.96463L7.80063 26.572ZM7.80063 27.836V27.588L7.96463 27.424H8.24863L8.40863 27.592V27.832L8.24863 28H7.96463L7.80063 27.836ZM8.73031 26.572V26.324L8.89431 26.16H9.17831L9.33831 26.328V26.568L9.17831 26.736H8.89431L8.73031 26.572ZM8.73031 27.836V27.588L8.89431 27.424H9.17831L9.33831 27.592V27.832L9.17831 28H8.89431L8.73031 27.836ZM9.72 27.536V25.664L10.184 25.2H11.424L11.888 25.664V27.536L11.424 28H10.184L9.72 27.536ZM11.168 27.536L11.344 27.36V25.84L11.168 25.664H10.44L10.264 25.84V27.36L10.44 27.536H11.168ZM12.3294 27.536V25.664L12.7934 25.2H14.0334L14.4974 25.664V27.536L14.0334 28H12.7934L12.3294 27.536ZM13.7774 27.536L13.9534 27.36V25.84L13.7774 25.664H13.0494L12.8734 25.84V27.36L13.0494 27.536H13.7774ZM15.4228 25.78L14.8188 26.092V25.592L15.5308 25.2H15.9668V28H15.4228V25.78ZM16.4021 27.388L17.8421 26.08V25.796L17.7101 25.664H17.0621L16.9301 25.796V26.08H16.3861V25.632L16.8181 25.2H17.9541L18.3861 25.632V26.24L16.9661 27.504V27.544H18.4021V28H16.4021V27.388ZM18.543 28.04H20.471V28.488H18.543V28.04ZM20.6287 27.388L22.0687 26.08V25.796L21.9367 25.664H21.2887L21.1567 25.796V26.08H20.6127V25.632L21.0447 25.2H22.1807L22.6127 25.632V26.24L21.1927 27.504V27.544H22.6287V28H20.6287V27.388ZM22.9895 27.536V25.664L23.4535 25.2H24.6935L25.1575 25.664V27.536L24.6935 28H23.4535L22.9895 27.536ZM24.4375 27.536L24.6135 27.36V25.84L24.4375 25.664H23.7095L23.5335 25.84V27.36L23.7095 27.536H24.4375ZM25.5349 27.388L26.9749 26.08V25.796L26.8429 25.664H26.1949L26.0629 25.796V26.08H25.5189V25.632L25.9509 25.2H27.0869L27.5189 25.632V26.24L26.0989 27.504V27.544H27.5349V28H25.5349V27.388ZM29.0678 27.48H27.7158V26.932L28.9598 25.2H29.6118V27.016H29.9518V27.48H29.6118V28H29.0678V27.48ZM29.0918 27.032V25.808H29.0758L28.2478 26.976V27.032H29.0918Z" fill="black"/>
<path d="M3.896 31.66H3.06V31.2H5.276V31.66H4.44V34H3.896V31.66ZM5.19516 32.744H6.60316V33.2H5.19516V32.744ZM6.98172 33.536V31.664L7.44572 31.2H8.68572L9.14972 31.664V33.536L8.68572 34H7.44572L6.98172 33.536ZM8.42972 33.536L8.60572 33.36V31.84L8.42972 31.664H7.70172L7.52572 31.84V33.36L7.70172 33.536H8.42972ZM10.0751 31.78L9.47109 32.092V31.592L10.1831 31.2H10.6191V34H10.0751V31.78ZM11.0544 33.388L12.4944 32.08V31.796L12.3624 31.664H11.7144L11.5824 31.796V32.08H11.0384V31.632L11.4704 31.2H12.6064L13.0384 31.632V32.24L11.6184 33.504V33.544H13.0544V34H11.0544V33.388ZM13.4553 30.736H14.5113V31.192H13.9833V34.012H14.5113V34.468H13.4553V30.736ZM15.4663 31.66H14.6303V31.2H16.8463V31.66H16.0103V34H15.4663V31.66ZM18.6984 32.008V34.456L18.2664 34.884H17.2184L16.8464 34.516V34.244H17.3744V34.364L17.4504 34.444H18.0344L18.1704 34.304V33.704L17.8744 34H17.2144L16.7864 33.568V32.008H17.3144V33.412L17.4504 33.552H17.7984L18.1704 33.156V32.008H18.6984ZM19.1775 32.008H19.6655V32.3L19.9575 32.008H20.7335L21.1455 32.424V33.584L20.7335 34H19.9615L19.7055 33.788V34.848H19.1775V32.008ZM20.4775 33.552L20.6175 33.412V32.596L20.4775 32.456H20.0255L19.7055 32.78V33.268L20.0215 33.552H20.4775ZM21.5438 33.592V32.424L21.9558 32.008H23.0798L23.4958 32.424V33.18H22.0718V33.436L22.1998 33.568H22.8518L22.9718 33.444V33.34H23.4918V33.6L23.0958 34H21.9478L21.5438 33.592ZM22.9678 32.812V32.58L22.8318 32.44H22.2078L22.0718 32.58V32.812H22.9678ZM24.3798 31.78L23.7758 32.092V31.592L24.4878 31.2H24.9238V34H24.3798V31.78ZM25.3591 33.388L26.7991 32.08V31.796L26.6671 31.664H26.0191L25.8871 31.796V32.08H25.3431V31.632L25.7751 31.2H26.9111L27.3431 31.632V32.24L25.9231 33.504V33.544H27.3591V34H25.3591V33.388ZM27.56 34.468V34.012H28.088V31.192H27.56V30.736H28.616V34.468H27.56Z" fill="black"/>
<circle cx="152" cy="4" r="1" fill="black"/>
<circle cx="152" cy="7" r="1" fill="black"/>
<circle cx="155" cy="4" r="1" fill="black"/>
<circle cx="155" cy="7" r="1" fill="black"/>
<path d="M70.84 14.6H72.472V23H70.84V14.6ZM74.0964 14.6H75.5604L79.3044 20.3H79.3284V14.6H80.9004V23H79.4364L75.6924 17.312H75.6684V23H74.0964V14.6ZM82.2836 21.704V20.504H83.8916V21.212L84.2876 21.608H86.7716L87.1796 21.2V19.808L86.7836 19.412H83.6036L82.3076 18.116V15.896L83.6036 14.6H87.3956L88.6916 15.896V17.108H87.0836V16.388L86.6876 15.992H84.3116L83.9156 16.388V17.624L84.3116 18.02H87.4916L88.7876 19.316V21.68L87.4676 23H83.5796L82.2836 21.704ZM91.7075 15.98H89.1995V14.6H95.8475V15.98H93.3395V23H91.7075V15.98ZM98.0812 14.6H99.5692L102.641 23H100.985L100.301 21.14H97.3492L96.6652 23H95.0092L98.0812 14.6ZM99.9412 19.796L98.8252 16.604H98.8012L97.7212 19.796H99.9412ZM103.191 21.62V15.98L104.571 14.6H108.747L110.103 15.956V17.24H108.471V16.556L107.907 15.992H105.435L104.823 16.604V20.996L105.435 21.608H107.931L108.519 21.02V19.712H106.719V18.32H110.103V21.62L108.723 23H104.571L103.191 21.62ZM118.021 20.216V23H116.389V20.588L115.669 19.784H113.053V23H111.421V14.6H116.689L117.973 15.896V18.44L117.157 19.268L118.021 20.216ZM113.053 18.44H115.945L116.365 18.02V16.388L115.945 15.968H113.053V18.44ZM121.87 14.6H123.358L126.43 23H124.774L124.09 21.14H121.138L120.454 23H118.798L121.87 14.6ZM123.73 19.796L122.614 16.604H122.59L121.51 19.796H123.73ZM127.276 14.6H128.788L131.284 20.024H131.308L133.816 14.6H135.328V23H133.756V17.888H133.732L131.8 21.824H130.792L128.872 17.888H128.848V23H127.276V14.6Z" fill="black"/>
<g clip-path="url(#clip0_649_75)">
<path d="M35.9423 6.73924C44.782 1.15267 56.0624 5.69775 58.4742 15.7696C60.4911 24.1923 54.5192 32.7284 45.9146 33.722C37.9239 34.6447 30.7101 29.3476 29.5138 21.4399C28.5854 15.3042 30.8469 10.3882 35.9423 6.73924ZM35.4401 27.183C36.5805 28.387 37.9942 29.0091 39.6378 29.0272C42.4603 29.0584 45.2842 29.0799 48.106 29.0252C51.3516 28.9624 53.8369 26.5122 53.8859 23.3431C53.9307 20.446 53.9315 17.547 53.8838 14.6499C53.8353 11.713 51.4736 9.20187 48.5479 9.10867C45.3796 9.00774 42.2027 9.01562 39.0344 9.1219C36.4656 9.20807 34.0793 11.5198 33.9566 14.0836C33.8088 17.1734 33.8555 20.2738 33.8661 23.3695C33.8709 24.7914 34.4104 26.0431 35.4401 27.183Z" fill="#030303"/>
<path d="M38.2457 10.7877C38.7955 10.7004 39.2883 10.5828 39.7819 10.5796C42.5553 10.5618 45.329 10.558 48.1024 10.5758C50.4841 10.5911 52.35 12.3866 52.3911 14.7746C52.4397 17.597 52.4383 20.4215 52.3913 23.244C52.3503 25.7058 50.4747 27.5054 48.0083 27.5201C45.2846 27.5364 42.5607 27.5351 39.837 27.5214C37.2223 27.5082 35.4127 25.7251 35.3828 23.097C35.3522 20.3988 35.3685 17.7 35.3775 15.0016C35.3842 12.9871 36.3477 11.6009 38.2457 10.7877ZM44.4646 24.5207C47.6321 24.0353 49.5994 21.6267 49.3786 18.5045C49.187 15.797 46.8167 13.6031 44.0004 13.5265C41.2313 13.4513 38.7251 15.5794 38.4173 18.2675C38.0031 21.8839 40.5663 24.5984 44.4646 24.5207ZM50.3332 13.4942C50.3837 12.884 50.0907 12.4048 49.5371 12.3071C49.1658 12.2416 48.5948 12.4014 48.3691 12.673C48.1445 12.9435 48.0886 13.5484 48.2394 13.8786C48.3746 14.1747 48.876 14.4213 49.2432 14.4663C49.7908 14.5335 50.1592 14.1561 50.3332 13.4942Z" fill="#040404"/>
<path d="M47.6209 17.6735C48.2872 19.9607 47.2979 22.0181 45.2152 22.7725C43.2773 23.4745 41.0964 22.554 40.251 20.6772C39.388 18.7611 40.1605 16.5008 42.0104 15.5298C43.8794 14.5487 46.1659 15.1642 47.2648 16.9503C47.3949 17.1618 47.4902 17.3946 47.6209 17.6735Z" fill="#030303"/>
</g>
<defs>
<clipPath id="clip0_649_75">
<rect width="30" height="30" fill="white" transform="translate(29 4)"/>
</clipPath>
</defs>
</svg>
