<svg version="1.1" id="Layer_1" xmlns="http://www.w3.org/2000/svg" xmlns:xlink="http://www.w3.org/1999/xlink" x="0px" y="0px"
	 width="100%" viewBox="0 0 172 168" enable-background="new 0 0 172 168" xml:space="preserve">
<path fill="#020202" opacity="1.000000" stroke="none" 
	d="
M105.000000,169.000000 
	C70.000008,169.000000 35.500008,169.000000 1.000009,169.000000 
	C1.000006,113.000008 1.000006,57.000023 1.000003,1.000024 
	C58.333317,1.000016 115.666634,1.000016 172.999969,1.000008 
	C172.999969,56.999973 172.999969,112.999947 172.999985,168.999969 
	C150.500000,169.000000 128.000000,169.000000 105.000000,169.000000 
M60.477390,153.113220 
	C72.035484,157.078720 83.828354,158.125153 95.918289,156.195801 
	C125.436661,151.485153 149.061630,129.529602 155.807159,100.435440 
	C162.458282,71.748528 150.806778,41.553356 126.485275,24.446995 
	C102.230621,7.387655 69.892754,6.448988 45.157150,22.742146 
	C21.371807,38.409367 9.516304,60.929134 11.697264,89.321976 
	C14.074312,120.267570 30.989111,141.312515 60.477390,153.113220 
z"/>
<path fill="#FBFBFB" opacity="1.000000" stroke="none" 
	d="
M60.101269,153.001282 
	C30.989111,141.312515 14.074312,120.267570 11.697264,89.321976 
	C9.516304,60.929134 21.371807,38.409367 45.157150,22.742146 
	C69.892754,6.448988 102.230621,7.387655 126.485275,24.446995 
	C150.806778,41.553356 162.458282,71.748528 155.807159,100.435440 
	C149.061630,129.529602 125.436661,151.485153 95.918289,156.195801 
	C83.828354,158.125153 72.035484,157.078720 60.101269,153.001282 
M53.652172,65.001396 
	C79.241714,61.721218 104.117134,63.312397 127.445152,75.698303 
	C131.557983,77.881981 135.405960,76.854927 137.204590,73.100967 
	C139.120499,69.102264 137.763367,65.954536 134.077835,63.822815 
	C120.125580,55.752796 104.834763,52.091499 88.976318,50.574547 
	C72.466003,48.995243 56.049934,49.499802 39.962242,54.049179 
	C35.389030,55.342422 33.235226,58.646233 34.127083,62.470497 
	C35.067974,66.505028 38.607727,68.263359 43.544617,67.157539 
	C46.625927,66.467346 49.709908,65.789085 53.652172,65.001396 
M79.692703,86.713120 
	C93.304787,87.693024 106.156128,91.164429 118.206131,97.758286 
	C120.128632,98.810287 123.380966,98.667480 125.447815,97.767059 
	C126.732697,97.207291 127.877525,93.894821 127.398018,92.337227 
	C126.810471,90.428673 124.730690,88.558769 122.830818,87.538666 
	C98.105576,74.262749 72.062912,71.698174 44.989590,78.468918 
	C40.029480,79.709389 38.066765,82.476753 39.076660,86.062889 
	C40.054153,89.533958 43.190948,90.193886 48.147339,89.555313 
	C58.316788,88.245087 68.568092,87.570251 79.692703,86.713120 
M63.741188,99.048599 
	C58.320477,99.898438 52.900410,100.752434 47.478806,101.596550 
	C44.203442,102.106514 41.329140,103.396469 42.109955,107.272972 
	C42.950233,111.444695 46.175304,111.262169 49.618534,110.518951 
	C61.744087,107.901642 74.089272,106.301949 86.266266,109.067070 
	C94.747215,110.992905 102.880875,114.545067 111.056053,117.668144 
	C113.932678,118.767067 116.329742,119.068901 118.007057,116.279243 
	C119.759651,113.364365 118.276421,111.233124 115.636192,109.712677 
	C114.195412,108.882957 112.766823,108.025749 111.285980,107.272896 
	C96.593643,99.803436 80.903915,97.924774 63.741188,99.048599 
z"/>
<path fill="#080808" opacity="1.000000" stroke="none" 
	d="
M53.222431,65.053436 
	C49.709908,65.789085 46.625927,66.467346 43.544617,67.157539 
	C38.607727,68.263359 35.067974,66.505028 34.127083,62.470497 
	C33.235226,58.646233 35.389030,55.342422 39.962242,54.049179 
	C56.049934,49.499802 72.466003,48.995243 88.976318,50.574547 
	C104.834763,52.091499 120.125580,55.752796 134.077835,63.822815 
	C137.763367,65.954536 139.120499,69.102264 137.204590,73.100967 
	C135.405960,76.854927 131.557983,77.881981 127.445152,75.698303 
	C104.117134,63.312397 79.241714,61.721218 53.222431,65.053436 
z"/>
<path fill="#080808" opacity="1.000000" stroke="none" 
	d="
M79.239204,86.673485 
	C68.568092,87.570251 58.316788,88.245087 48.147339,89.555313 
	C43.190948,90.193886 40.054153,89.533958 39.076660,86.062889 
	C38.066765,82.476753 40.029480,79.709389 44.989590,78.468918 
	C72.062912,71.698174 98.105576,74.262749 122.830818,87.538666 
	C124.730690,88.558769 126.810471,90.428673 127.398018,92.337227 
	C127.877525,93.894821 126.732697,97.207291 125.447815,97.767059 
	C123.380966,98.667480 120.128632,98.810287 118.206131,97.758286 
	C106.156128,91.164429 93.304787,87.693024 79.239204,86.673485 
z"/>
<path fill="#0A0A0A" opacity="1.000000" stroke="none" 
	d="
M64.216385,99.026520 
	C80.903915,97.924774 96.593643,99.803436 111.285980,107.272896 
	C112.766823,108.025749 114.195412,108.882957 115.636192,109.712677 
	C118.276421,111.233124 119.759651,113.364365 118.007057,116.279243 
	C116.329742,119.068901 113.932678,118.767067 111.056053,117.668144 
	C102.880875,114.545067 94.747215,110.992905 86.266266,109.067070 
	C74.089272,106.301949 61.744087,107.901642 49.618534,110.518951 
	C46.175304,111.262169 42.950233,111.444695 42.109955,107.272972 
	C41.329140,103.396469 44.203442,102.106514 47.478806,101.596550 
	C52.900410,100.752434 58.320477,99.898438 64.216385,99.026520 
z"/>
</svg>