<svg width="750" height="530" viewBox="0 0 750 530" fill="none" xmlns="http://www.w3.org/2000/svg">
<path d="M298.3 376.475V153.55L494.275 265.025L298.3 376.475ZM734.2 83.375C725.35 50.85 700.35 25.7 668.575 16.8L667.9 16.65C588.075 6.50005 495.75 0.700047 402.05 0.700047C392.525 0.700047 383.025 0.750046 373.55 0.875046L375 0.850048C366.95 0.750048 357.475 0.675049 347.95 0.675049C254.25 0.675049 161.875 6.47504 71.2001 17.7L82.0501 16.6001C49.6251 25.6751 24.6251 50.8 15.9501 82.675L15.8001 83.325C5.8001 136.05 0.100098 196.725 0.100098 258.725C0.100098 260.925 0.100099 263.125 0.125099 265.3V264.95C0.125099 266.8 0.100098 269 0.100098 271.2C0.100098 333.2 5.8251 393.85 16.7501 452.675L15.8001 446.575C24.6501 479.1 49.6501 504.25 81.4251 513.15L82.1001 513.3C161.925 523.45 254.25 529.25 347.95 529.25C357.45 529.25 366.95 529.2 376.45 529.075L375 529.1C383.05 529.2 392.55 529.275 402.05 529.275C495.775 529.275 588.125 523.475 678.8 512.25L667.95 513.35C700.4 504.3 725.4 479.15 734.1 447.275L734.25 446.625C744.225 393.9 749.925 333.225 749.925 271.25C749.925 269.05 749.925 266.85 749.9 264.675V265C749.9 263.15 749.925 260.95 749.925 258.75C749.925 196.75 744.2 136.1 733.275 77.2751L734.2 83.375Z" fill="white"/>
</svg>
