<svg width="160" height="51" viewBox="0 0 160 51" fill="none" xmlns="http://www.w3.org/2000/svg">
<path d="M1 0H160C160 6.77965 160 23.5 160 29C151.5 38 160 29 151.5 38H1V0Z" fill="white" id="unique-path" />
<circle cx="153" cy="3" r="1" fill="black"/>
<circle cx="153" cy="6" r="1" fill="black"/>
<circle cx="156" cy="3" r="1" fill="black"/>
<circle cx="156" cy="6" r="1" fill="black"/>
<path d="M3.896 27.66H3.06V27.2H5.276V27.66H4.44V30H3.896V27.66ZM5.59594 27.2H7.57994V27.66H6.13994V28.436H7.38794V28.896H6.13994V30H5.59594V27.2ZM7.80063 28.572V28.324L7.96463 28.16H8.24863L8.40863 28.328V28.568L8.24863 28.736H7.96463L7.80063 28.572ZM7.80063 29.836V29.588L7.96463 29.424H8.24863L8.40863 29.592V29.832L8.24863 30H7.96463L7.80063 29.836ZM8.73031 28.572V28.324L8.89431 28.16H9.17831L9.33831 28.328V28.568L9.17831 28.736H8.89431L8.73031 28.572ZM8.73031 29.836V29.588L8.89431 29.424H9.17831L9.33831 29.592V29.832L9.17831 30H8.89431L8.73031 29.836ZM9.72 29.536V27.664L10.184 27.2H11.424L11.888 27.664V29.536L11.424 30H10.184L9.72 29.536ZM11.168 29.536L11.344 29.36V27.84L11.168 27.664H10.44L10.264 27.84V29.36L10.44 29.536H11.168ZM12.3294 29.536V27.664L12.7934 27.2H14.0334L14.4974 27.664V29.536L14.0334 30H12.7934L12.3294 29.536ZM13.7774 29.536L13.9534 29.36V27.84L13.7774 27.664H13.0494L12.8734 27.84V29.36L13.0494 29.536H13.7774ZM15.4228 27.78L14.8188 28.092V27.592L15.5308 27.2H15.9668V30H15.4228V27.78ZM16.4021 29.388L17.8421 28.08V27.796L17.7101 27.664H17.0621L16.9301 27.796V28.08H16.3861V27.632L16.8181 27.2H17.9541L18.3861 27.632V28.24L16.9661 29.504V29.544H18.4021V30H16.4021V29.388ZM18.543 30.04H20.471V30.488H18.543V30.04ZM20.6287 29.388L22.0687 28.08V27.796L21.9367 27.664H21.2887L21.1567 27.796V28.08H20.6127V27.632L21.0447 27.2H22.1807L22.6127 27.632V28.24L21.1927 29.504V29.544H22.6287V30H20.6287V29.388ZM22.9895 29.536V27.664L23.4535 27.2H24.6935L25.1575 27.664V29.536L24.6935 30H23.4535L22.9895 29.536ZM24.4375 29.536L24.6135 29.36V27.84L24.4375 27.664H23.7095L23.5335 27.84V29.36L23.7095 29.536H24.4375ZM25.5349 29.388L26.9749 28.08V27.796L26.8429 27.664H26.1949L26.0629 27.796V28.08H25.5189V27.632L25.9509 27.2H27.0869L27.5189 27.632V28.24L26.0989 29.504V29.544H27.5349V30H25.5349V29.388ZM29.0678 29.48H27.7158V28.932L28.9598 27.2H29.6118V29.016H29.9518V29.48H29.6118V30H29.0678V29.48ZM29.0918 29.032V27.808H29.0758L28.2478 28.976V29.032H29.0918Z" fill="black"/>
<path d="M3.896 33.66H3.06V33.2H5.276V33.66H4.44V36H3.896V33.66ZM5.19516 34.744H6.60316V35.2H5.19516V34.744ZM6.98172 35.536V33.664L7.44572 33.2H8.68572L9.14972 33.664V35.536L8.68572 36H7.44572L6.98172 35.536ZM8.42972 35.536L8.60572 35.36V33.84L8.42972 33.664H7.70172L7.52572 33.84V35.36L7.70172 35.536H8.42972ZM10.0751 33.78L9.47109 34.092V33.592L10.1831 33.2H10.6191V36H10.0751V33.78ZM11.0544 35.388L12.4944 34.08V33.796L12.3624 33.664H11.7144L11.5824 33.796V34.08H11.0384V33.632L11.4704 33.2H12.6064L13.0384 33.632V34.24L11.6184 35.504V35.544H13.0544V36H11.0544V35.388ZM13.4553 32.736H14.5113V33.192H13.9833V36.012H14.5113V36.468H13.4553V32.736ZM15.4663 33.66H14.6303V33.2H16.8463V33.66H16.0103V36H15.4663V33.66ZM18.6984 34.008V36.456L18.2664 36.884H17.2184L16.8464 36.516V36.244H17.3744V36.364L17.4504 36.444H18.0344L18.1704 36.304V35.704L17.8744 36H17.2144L16.7864 35.568V34.008H17.3144V35.412L17.4504 35.552H17.7984L18.1704 35.156V34.008H18.6984ZM19.1775 34.008H19.6655V34.3L19.9575 34.008H20.7335L21.1455 34.424V35.584L20.7335 36H19.9615L19.7055 35.788V36.848H19.1775V34.008ZM20.4775 35.552L20.6175 35.412V34.596L20.4775 34.456H20.0255L19.7055 34.78V35.268L20.0215 35.552H20.4775ZM21.5438 35.592V34.424L21.9558 34.008H23.0798L23.4958 34.424V35.18H22.0718V35.436L22.1998 35.568H22.8518L22.9718 35.444V35.34H23.4918V35.6L23.0958 36H21.9478L21.5438 35.592ZM22.9678 34.812V34.58L22.8318 34.44H22.2078L22.0718 34.58V34.812H22.9678ZM24.3798 33.78L23.7758 34.092V33.592L24.4878 33.2H24.9238V36H24.3798V33.78ZM25.3591 35.388L26.7991 34.08V33.796L26.6671 33.664H26.0191L25.8871 33.796V34.08H25.3431V33.632L25.7751 33.2H26.9111L27.3431 33.632V34.24L25.9231 35.504V35.544H27.3591V36H25.3591V35.388ZM27.56 36.468V36.012H28.088V33.192H27.56V32.736H28.616V36.468H27.56Z" fill="black"/>
<path d="M1 46V42H101L109 50H4.5L1 46Z" fill="black" stroke="white"/>
<path d="M8.044 44.2H8.54L9.564 47H9.012L8.784 46.38H7.8L7.572 47H7.02L8.044 44.2ZM8.664 45.932L8.292 44.868H8.284L7.924 45.932H8.664ZM9.84594 44.2H10.3899V46.54H11.7899V47H9.84594V44.2ZM12.0881 44.2H12.6321V46.54H14.0321V47H12.0881V44.2ZM15.3602 46.568V46.168H15.8962V46.404L16.0282 46.536H16.8562L16.9922 46.4V45.936L16.8602 45.804H15.8002L15.3682 45.372V44.632L15.8002 44.2H17.0642L17.4962 44.632V45.036H16.9602V44.796L16.8282 44.664H16.0362L15.9042 44.796V45.208L16.0362 45.34H17.0962L17.5282 45.772V46.56L17.0882 47H15.7922L15.3602 46.568ZM18.5624 45.856L17.5664 44.2H18.1624L18.8304 45.348H18.8384L19.5064 44.2H20.1024L19.1064 45.856V47H18.5624V45.856ZM20.1805 46.568V46.168H20.7165V46.404L20.8485 46.536H21.6765L21.8125 46.4V45.936L21.6805 45.804H20.6205L20.1885 45.372V44.632L20.6205 44.2H21.8845L22.3165 44.632V45.036H21.7805V44.796L21.6485 44.664H20.8565L20.7245 44.796V45.208L20.8565 45.34H21.9165L22.3485 45.772V46.56L21.9085 47H20.6125L20.1805 46.568ZM23.3218 44.66H22.4858V44.2H24.7018V44.66H23.8658V47H23.3218V44.66ZM25.0217 44.2H27.0457V44.66H25.5657V45.368H26.9297V45.82H25.5657V46.54H27.0457V47H25.0217V44.2ZM27.4475 44.2H27.9515L28.7835 46.008H28.7915L29.6275 44.2H30.1315V47H29.6075V45.296H29.5995L28.9555 46.608H28.6195L27.9795 45.296H27.9715V47H27.4475V44.2ZM30.5906 46.568V46.168H31.1266V46.404L31.2586 46.536H32.0866L32.2226 46.4V45.936L32.0906 45.804H31.0306L30.5986 45.372V44.632L31.0306 44.2H32.2946L32.7266 44.632V45.036H32.1906V44.796L32.0586 44.664H31.2666L31.1346 44.796V45.208L31.2666 45.34H32.3266L32.7586 45.772V46.56L32.3186 47H31.0226L30.5906 46.568ZM32.9375 47.04H34.8655V47.488H32.9375V47.04ZM35.9112 44.2H36.4072L37.4312 47H36.8792L36.6512 46.38H35.6672L35.4392 47H34.8872L35.9112 44.2ZM36.5312 45.932L36.1592 44.868H36.1512L35.7912 45.932H36.5312ZM37.6145 46.54V44.66L38.0745 44.2H39.4425L39.8945 44.652V45.08H39.3505V44.852L39.1625 44.664H38.3625L38.1585 44.868V46.332L38.3625 46.536H39.1625L39.3505 46.348V46.12H39.8945V46.548L39.4425 47H38.0745L37.6145 46.54ZM40.8921 44.66H40.0561V44.2H42.2721V44.66H41.4361V47H40.8921V44.66ZM42.612 44.2H43.156V47H42.612V44.2ZM43.4775 44.2H44.0375L44.7335 46.352H44.7415L45.4375 44.2H45.9975L45.0015 47H44.4735L43.4775 44.2ZM46.2991 44.2H48.3231V44.66H46.8431V45.368H48.2071V45.82H46.8431V46.54H48.3231V47H46.2991V44.2ZM48.6248 45.572V45.324L48.7888 45.16H49.0728L49.2328 45.328V45.568L49.0728 45.736H48.7888L48.6248 45.572ZM48.6248 46.836V46.588L48.7888 46.424H49.0728L49.2328 46.592V46.832L49.0728 47H48.7888L48.6248 46.836ZM51.3804 44.66H50.5444V44.2H52.7604V44.66H51.9244V47H51.3804V44.66ZM55.2803 46.072V47H54.7363V46.196L54.4963 45.928H53.6243V47H53.0803V44.2H54.8363L55.2643 44.632V45.48L54.9923 45.756L55.2803 46.072ZM53.6243 45.48H54.5883L54.7283 45.34V44.796L54.5883 44.656H53.6243V45.48ZM55.7795 46.52V44.2H56.3235V46.332L56.5275 46.536H57.3115L57.5155 46.332V44.2H58.0595V46.52L57.5795 47H56.2595L55.7795 46.52ZM58.5803 44.2H60.6043V44.66H59.1243V45.368H60.4883V45.82H59.1243V46.54H60.6043V47H58.5803V44.2Z" fill="#DBDBDB"/>
<path d="M156.793 42.5L159.5 45.2071V49.5H112.201L105.206 42.7868V42.5H156.793Z" fill="white" stroke="white"/>
<line x1="157" y1="44.5" x2="144" y2="44.5" stroke="black"/>
<path d="M71.84 14.6H73.472V23H71.84V14.6ZM75.0964 14.6H76.5604L80.3044 20.3H80.3284V14.6H81.9004V23H80.4364L76.6924 17.312H76.6684V23H75.0964V14.6ZM83.2836 21.704V20.504H84.8916V21.212L85.2876 21.608H87.7716L88.1796 21.2V19.808L87.7836 19.412H84.6036L83.3076 18.116V15.896L84.6036 14.6H88.3956L89.6916 15.896V17.108H88.0836V16.388L87.6876 15.992H85.3116L84.9156 16.388V17.624L85.3116 18.02H88.4916L89.7876 19.316V21.68L88.4676 23H84.5796L83.2836 21.704ZM92.7075 15.98H90.1995V14.6H96.8475V15.98H94.3395V23H92.7075V15.98ZM99.0812 14.6H100.569L103.641 23H101.985L101.301 21.14H98.3492L97.6652 23H96.0092L99.0812 14.6ZM100.941 19.796L99.8252 16.604H99.8012L98.7212 19.796H100.941ZM104.191 21.62V15.98L105.571 14.6H109.747L111.103 15.956V17.24H109.471V16.556L108.907 15.992H106.435L105.823 16.604V20.996L106.435 21.608H108.931L109.519 21.02V19.712H107.719V18.32H111.103V21.62L109.723 23H105.571L104.191 21.62ZM119.021 20.216V23H117.389V20.588L116.669 19.784H114.053V23H112.421V14.6H117.689L118.973 15.896V18.44L118.157 19.268L119.021 20.216ZM114.053 18.44H116.945L117.365 18.02V16.388L116.945 15.968H114.053V18.44ZM122.87 14.6H124.358L127.43 23H125.774L125.09 21.14H122.138L121.454 23H119.798L122.87 14.6ZM124.73 19.796L123.614 16.604H123.59L122.51 19.796H124.73ZM128.276 14.6H129.788L132.284 20.024H132.308L134.816 14.6H136.328V23H134.756V17.888H134.732L132.8 21.824H131.792L129.872 17.888H129.848V23H128.276V14.6Z" fill="black"/>
<g clip-path="url(#clip0_445_88)">
<path d="M36.9423 6.73924C45.782 1.15267 57.0624 5.69775 59.4742 15.7696C61.4911 24.1923 55.5192 32.7284 46.9146 33.722C38.9239 34.6447 31.7101 29.3476 30.5138 21.4399C29.5854 15.3042 31.8469 10.3882 36.9423 6.73924ZM36.4401 27.183C37.5805 28.387 38.9942 29.0091 40.6378 29.0272C43.4603 29.0584 46.2842 29.0799 49.106 29.0252C52.3516 28.9624 54.8369 26.5122 54.8859 23.3431C54.9307 20.446 54.9315 17.547 54.8838 14.6499C54.8353 11.713 52.4736 9.20187 49.5479 9.10867C46.3796 9.00774 43.2027 9.01562 40.0344 9.1219C37.4656 9.20807 35.0793 11.5198 34.9566 14.0836C34.8088 17.1734 34.8555 20.2738 34.8661 23.3695C34.8709 24.7914 35.4104 26.0431 36.4401 27.183Z" fill="#030303"/>
<path d="M39.2457 10.7877C39.7955 10.7004 40.2883 10.5828 40.7819 10.5796C43.5553 10.5618 46.329 10.558 49.1024 10.5758C51.4841 10.5911 53.35 12.3866 53.3911 14.7746C53.4397 17.597 53.4383 20.4215 53.3913 23.244C53.3503 25.7058 51.4747 27.5054 49.0083 27.5201C46.2846 27.5364 43.5607 27.5351 40.837 27.5214C38.2223 27.5082 36.4127 25.7251 36.3828 23.097C36.3522 20.3988 36.3685 17.7 36.3775 15.0016C36.3842 12.9871 37.3477 11.6009 39.2457 10.7877ZM45.4646 24.5207C48.6321 24.0353 50.5995 21.6267 50.3786 18.5045C50.187 15.797 47.8167 13.6031 45.0004 13.5265C42.2313 13.4513 39.7251 15.5794 39.4173 18.2675C39.0031 21.8839 41.5663 24.5984 45.4646 24.5207ZM51.3332 13.4942C51.3837 12.884 51.0907 12.4048 50.5371 12.3071C50.1658 12.2416 49.5948 12.4014 49.3691 12.673C49.1445 12.9435 49.0886 13.5484 49.2394 13.8786C49.3746 14.1747 49.876 14.4213 50.2432 14.4663C50.7908 14.5335 51.1592 14.1561 51.3332 13.4942Z" fill="#040404"/>
<path d="M48.6209 17.6735C49.2872 19.9607 48.2979 22.0181 46.2152 22.7725C44.2773 23.4745 42.0964 22.5539 41.251 20.6772C40.388 18.7611 41.1605 16.5008 43.0104 15.5298C44.8794 14.5487 47.1659 15.1642 48.2648 16.9503C48.3949 17.1618 48.4902 17.3946 48.6209 17.6735Z" fill="#030303"/>
</g>
<defs>
<clipPath id="clip0_445_88">
<rect width="30" height="30" fill="white" transform="translate(30 4)"/>
</clipPath>
</defs>
</svg>
